# xmcd
#
# Track frame offsets:
#	150
#	4282
#	15585
#	39740
#	63906
#	71880
#	88590
#	112810
#	131856
#	138308
#	162452
#
# Disc length: 2405 seconds
#
# Revision: 0
# Processed by: cddbd v1.5.2PL0 Copyright (c) Steve Scherf et al.
# Submitted via: dBpowerAMP V4.0
#
DISCID=9609630b
DTITLE=Justin Lavash - Programmed
DYEAR=2016
DGENRE=Bluegrass
TTITLE0=Fistfulla Snakes
TTITLE1=The Story So Far
TTITLE2=Programmed
TTITLE3=EZ in CZ
TTITLE4=Just Before
TTITLE5=Groove Total
TTITLE6=Meditation Gong
TTITLE7=This Is Now
TTITLE8=Gonna Raise A Racket
TTITLE9=A Little Too Soon
TTITLE10=Affluenza
EXTD=
EXTT0=
EXTT1=
EXTT2=
EXTT3=
EXTT4=
EXTT5=
EXTT6=
EXTT7=
EXTT8=
EXTT9=
EXTT10=
PLAYORDER=
